HIERARCHY
ROOT Hips
{
  OFFSET 49.1216 87.2256 -127.831
  CHANNELS 6 Xposition Yposition Zposition Zrotation Xrotation Yrotation
  JOINT RightUpLeg
  {
    OFFSET -8.9458 -8.66707 0.101652
    CHANNELS 3 Zrotation Xrotation Yrotation
    JOINT RightLeg
    {
      OFFSET 0 -44.4227 1.3727
      CHANNELS 3 Zrotation Xrotation Yrotation
      JOINT RightFoot
      {
        OFFSET 0.253549 -42.0924 -1.46059
        CHANNELS 3 Zrotation Xrotation Yrotation
        JOINT RightToes
        {
          OFFSET 0.04 -4.41509 8.4991
          CHANNELS 3 Zrotation Xrotation Yrotation
          End Site
          {
            OFFSET -0.08 -0.137448 9.77979
          }
        }
      }
    }
  }
  JOINT Spine
  {
    OFFSET 0 11.8905 0
    CHANNELS 3 Zrotation Xrotation Yrotation
    JOINT Spine1
    {
      OFFSET 0 25.6574 0.127663
      CHANNELS 3 Zrotation Xrotation Yrotation
      JOINT HEad
      {
        OFFSET 0 8.73416 0.011341
        CHANNELS 3 Zrotation Xrotation Yrotation
        End Site
        {
          OFFSET -0.29 12.7742 2.51395
        }
      }
      JOINT LeftShoulder1
      {
        OFFSET 8.99 -0.362252 -0.22
        CHANNELS 3 Zrotation Xrotation Yrotation
        JOINT LeftArm
        {
          OFFSET 10.2827 -0.00338 0.322123
          CHANNELS 3 Zrotation Xrotation Yrotation
          JOINT LeftForeArm
          {
            OFFSET 32.7669 0.099144 -1.42434
            CHANNELS 3 Zrotation Xrotation Yrotation
            JOINT LeftHand
            {
              OFFSET 27.5643 0.085362 1.02216
              CHANNELS 3 Zrotation Xrotation Yrotation
              End Site
              {
                OFFSET 16.7443 -0.6 1.50291
              }
            }
          }
        }
      }
      JOINT RightShoulder
      {
        OFFSET -8.99 -0.362252 -0.22
        CHANNELS 3 Zrotation Xrotation Yrotation
        JOINT RightArm
        {
          OFFSET -10.2827 -0.00338 0.322123
          CHANNELS 3 Zrotation Xrotation Yrotation
          JOINT RightForeArm
          {
            OFFSET -32.8971 0.099144 -1.42434
            CHANNELS 3 Zrotation Xrotation Yrotation
            JOINT RightHand
            {
              OFFSET -27.4921 0.085362 1.02216
              CHANNELS 3 Zrotation Xrotation Yrotation
              End Site
              {
                OFFSET -16.6312 -0.6 1.50291
              }
            }
          }
        }
      }
    }
  }
  JOINT LeftUpLeg
  {
    OFFSET 8.9458 -8.66707 0.101652
    CHANNELS 3 Zrotation Xrotation Yrotation
    JOINT LeftLeg
    {
      OFFSET 0 -44.4227 1.3727
      CHANNELS 3 Zrotation Xrotation Yrotation
      JOINT LeftFoot
      {
        OFFSET -0.253549 -42.0924 -1.46059
        CHANNELS 3 Zrotation Xrotation Yrotation
        JOINT LeftToes
        {
          OFFSET -0.04 -4.41509 8.4991
          CHANNELS 3 Zrotation Xrotation Yrotation
          End Site
          {
            OFFSET 0.08 -0.047448 9.77979
          }
        }
      }
    }
  }
}
MOTION
Frames:	21
Frame Time:	0.0166667
86.6789 92.5638 -111.605 -20.2461 -16.2944 -28.0695 -18.677 19.9039 -2.30438 -5.19663 -3.77034 14.0034 32.7319 20.0158 -12.6337 0.0462048 0.000533403 0.662642 7.69383 18.1246 4.62271 2.12871 -2.48616 0.0349535 5.41457 -3.19844 7.87506 1.19271e-015 0 -3.18055e-015 -153.474 -60.9978 -120.825 -98.2196 59.8472 -40.1611 6.68154 18.2532 -1.52138 12.6746 14.5258 13.5869 95.6816 -27.0151 86.8809 60.7596 67.3437 74.4738 -7.85376 13.1484 -0.506443 -7.40484 10.9565 19.21 14.1636 -8.99474 -20.1993 80.7141 45.7985 -35.1029 -1.00516e-008 1.56021e-007 -4.87131e-009 
89.9547 94.5127 -110.175 -21.8223 -14.3968 -31.3429 -16.5794 22.0085 -4.56694 -1.56739 -3.77504 15.5286 32.9938 23.0174 -14.0415 0.0462048 0.000533403 0.662642 10.6724 16.2779 2.44866 2.03941 -2.38391 0.0302917 2.36808 2.6299 9.53085 -7.95139e-016 0 6.36111e-015 -161.166 -65.1071 -126.674 -99.3639 60.5868 -40.238 7.49289 18.6023 0.815861 9.1635 16.675 17.3459 95.6995 -27.9533 86.4191 62.1346 66.5911 73.4949 -8.41425 18.6194 0.913837 -7.14806 9.58496 20.1592 17.0945 -6.12342 -10.0885 54.587 41.3757 -17.4373 -1.00516e-008 1.56021e-007 -4.87132e-009 
92.8544 96.4666 -108.855 -22.723 -12.7902 -34.134 -13.761 24.8361 -6.95262 0.789493 -3.77897 15.0604 39.098 26.8514 -16.9608 0.0462048 0.000533403 0.662642 12.8278 14.8484 0.740863 1.953 -2.28294 0.0235977 -0.743345 7.462 11.0083 -0 -1.59028e-015 -0 -168.842 -68.3232 -132.577 -100.358 61.4927 -40.4366 7.46919 18.368 -1.00748 6.28334 18.1402 20.5333 95.4063 -29.0608 85.6668 63.6171 65.8498 72.6413 -7.35843 14.5214 0.145849 -4.98646 6.43368 19.6288 18.1725 2.06852 -4.40137 29.5801 32.189 -3.88887 -1.00516e-008 1.56021e-007 -4.87131e-009 
95.4788 98.3465 -107.656 -23.0284 -11.4607 -36.5601 -9.78805 28.1745 -9.37772 2.22226 -3.78206 13.9593 45.9793 30.4799 -21.1746 0.0462048 0.000533403 0.662642 14.2126 13.7471 -0.511363 1.86923 -2.18448 0.0171342 -3.72704 11.4046 12.3072 7.95139e-016 -1.59028e-015 3.18055e-015 -176.397 -70.6166 -138.606 -101.202 62.2992 -40.5417 7.95491 18.867 0.448656 4.09396 19.1337 22.9575 94.7833 -30.2547 84.6698 65.0207 65.1752 72.0772 -7.42417 18.1439 0.64128 -1.47197 5.1943 17.8853 14.9339 8.40476 -4.58329 18.0871 23.792 0.267069 -1.00516e-008 1.56021e-007 -4.87131e-009 
97.8627 100.255 -106.657 -21.0088 -10.6512 -39.289 -6.61709 30.66 -11.3232 2.83513 -3.78448 12.6227 52.4218 33.8646 -25.9163 0.0462048 0.000533403 0.662642 12.9866 12.1479 -0.534167 1.78913 -2.0897 0.0115112 -6.43349 14.5639 13.4033 -2.38542e-015 -1.59028e-015 -3.18055e-015 177.153 -72.1413 -143.785 -101.904 63.0788 -40.5223 7.9463 18.6311 -0.752962 2.37869 19.7426 24.7348 94.1361 -31.4358 83.5667 66.3372 64.6213 71.6527 -6.84492 15.9239 0.374425 -0.703529 5.07025 15.993 11.7386 9.04085 -4.6678 7.23018 18.2273 1.85387 -1.00516e-008 1.56021e-007 -4.87131e-009 
100.017 102.538 -105.76 -18.9919 -10.0628 -41.6778 -1.95223 31.1172 -13.2471 2.14584 -1.50459 17.2822 43.6159 35.1765 -25.7164 0.0462048 0.000533403 0.662642 10.7879 11.7196 0.446847 1.64784 -1.93446 0.0495478 -7.60375 16.2279 13.4959 8.82781e-032 1.59028e-015 -3.18055e-015 175.665 -72.2777 -145.092 -102.391 63.7769 -40.4315 8.31372 18.9512 0.0257425 2.4258 19.1127 25.1805 93.3219 -32.5203 82.2604 67.5326 64.279 71.3648 -6.67915 18.1595 0.710523 -1.46366 10.752 13.6699 9.08155 -3.74421 -3.65022 -4.14444 19.9809 1.86122 -1.00516e-008 1.56021e-007 -4.87131e-009 
101.944 104.358 -105.241 -15.19 -9.64244 -44.587 -1.00419 25.9639 -13.2982 0.622085 9.66166 18.5248 37.3301 31.0507 -21.4908 0.0462048 0.000533403 0.662642 6.86561 10.2525 2.47903 1.64455 -1.91936 -0.00542659 -8.64836 17.5916 13.62 -0 0 9.54166e-015 175.562 -72.3343 -145.104 -102.59 64.3765 -40.3504 8.28936 18.7342 -0.960547 2.80143 18.4724 25.1013 92.3158 -33.3337 80.7729 68.5287 64.1022 71.1374 -6.47631 17.2943 0.727121 -2.24295 8.49612 10.4382 8.13686 -3.74814 -3.27154 -16.2837 16.1062 2.52407 -1.00516e-008 1.56021e-007 -4.87132e-009 
103.458 105.684 -104.975 -11.7713 -9.28575 -47.134 3.44521 31.8198 -14.7654 -1.76274 -3.42768 19.2516 32.2569 35.0324 -22.1856 0.0462048 0.000533403 0.662642 3.37584 8.86303 4.27967 1.56427 -1.82809 -0.0142188 -9.30445 18.5351 13.6569 -7.95139e-016 1.59028e-015 -0 177.137 -72.1605 -143.808 -102.452 64.78 -40.3816 8.44868 18.999 -0.670533 3.65656 17.6711 24.6351 91.2414 -33.8874 79.2725 69.1805 64.0555 71.021 -6.37217 18.7679 1.21599 -2.87149 6.00242 6.40746 8.41804 -3.74253 -2.28335 -28.8584 13.3108 2.43193 -1.00516e-008 1.56021e-007 -4.87131e-009 
104.7 106.291 -104.962 -8.76232 -8.90955 -49.3766 4.94563 31.1636 -15.1172 -4.06377 -3.75368 18.9093 25.6387 31.892 -19.2108 0.0462048 0.000533403 0.662642 0.320348 7.57971 5.87325 1.47367 -1.72467 -0.0190877 -9.67238 19.1401 13.6896 -7.95139e-016 7.95139e-016 -1.27222e-014 179.726 -71.8333 -141.878 -101.95 64.9158 -40.6596 8.35983 18.9651 -1.40399 4.68469 16.8159 23.8915 90.3867 -34.0849 77.9591 69.5961 64.096 70.9196 -6.41943 18.2794 1.54311 -3.22905 3.46763 1.79405 9.42429 -3.72898 -0.698033 -41.618 11.9927 2.02818 -1.00516e-008 1.56021e-007 -4.8713e-009 
106.128 106.688 -105.145 -6.19543 -8.45807 -51.4345 5.62606 29.7318 -15.1547 -5.8758 -3.73878 20.3046 14.9032 28.6046 -15.8453 0.0462048 0.000533403 0.662642 -2.28634 6.45867 7.32277 1.37628 -1.61457 -0.0223161 -9.79172 19.4252 13.7523 -1.19271e-015 -1.59028e-015 3.18055e-015 -178.087 -71.6554 -140.491 -101.925 64.9566 -41.0535 8.21175 18.8927 -1.36239 10.4749 12.199 11.4537 84.3687 -23.1351 72.2312 69.6239 63.9706 70.5363 -6.59006 19.4703 2.07574 -5.13863 1.06965 -3.67841 9.51103 -3.73871 -2.87105 -31.3076 11.0905 1.71215 -1.00516e-008 1.56021e-007 -4.87132e-009 
107.521 106.619 -105.401 -3.80945 -8.00548 -53.4752 5.48635 28.2451 -14.905 -7.15875 -3.73049 20.7056 6.59446 24.8927 -13.7332 0.0462048 0.000533403 0.662642 -4.70723 5.32777 8.72731 1.27488 -1.49966 -0.0293841 -9.79716 19.6524 13.8213 0 0 -0 -172.684 -71.4647 -136.373 -99.7869 64.8347 -43.1621 8.05037 18.7884 -1.32999 14.1565 8.33384 3.45896 81.1944 -15.6143 69.2908 69.5961 63.6765 69.9688 -6.76601 20.1538 2.58498 -6.96863 -1.22274 -9.44108 9.76797 -3.74326 -4.61187 -20.8848 9.3205 1.16704 -1.00516e-008 1.56021e-007 -4.87131e-009 
108.926 106.184 -105.626 -1.61191 -7.56819 -55.4992 4.82983 26.7213 -14.4779 -8.03098 -3.72879 20.3122 0.394751 20.5702 -12.3248 0.0462048 0.000533403 0.662642 -6.92279 4.21102 10.0567 1.17069 -1.3816 -0.0330934 -9.72149 19.8219 13.9141 -2.20695e-032 3.97569e-016 3.18055e-015 -164.178 -71.017 -129.556 -95.4595 64.4883 -46.9418 7.84712 18.6292 -1.23446 16.5431 5.5414 -1.79383 79.559 -10.6661 67.7926 69.6659 63.3284 69.3408 -6.97339 20.5296 2.98937 -8.72684 -3.37655 -15.2263 10.3607 -3.74329 -6.13556 -10.4402 7.85289 1.06086 -1.00516e-008 1.56021e-007 -4.87132e-009 
110.388 105.481 -105.792 0.415229 -7.16997 -57.5067 3.69205 25.0904 -13.8093 -8.605 -3.73198 19.3151 -3.89919 15.7932 -11.3863 0.0462048 0.000533403 0.662642 -8.94368 3.12847 11.295 1.06392 -1.26218 -0.0348582 -9.59478 19.9334 14.0481 4.96962e-017 0 9.54166e-015 -156.803 -70.4429 -123.939 -91.7551 63.8354 -50.3283 7.62275 18.3741 -1.06595 18.1682 3.81372 -5.27774 79.5495 -8.72353 67.2207 72.5768 63.4437 66.4824 -7.24334 20.7178 3.25268 -10.3099 -5.28888 -20.9075 11.2695 -3.73897 -7.24523 -0.0463318 6.9839 1.15221 -1.00516e-008 1.56021e-007 -4.87131e-009 
111.716 104.154 -105.922 1.67708 -7.01121 -59.7489 2.59873 23.7821 -12.8772 -9.2721 -3.74263 16.5032 -5.13716 10.1887 -10.7374 0.0462048 0.000533403 0.662642 -10.8692 2.74067 12.285 0.95586 -1.12235 -0.0608457 -9.51978 20.133 14.2996 2.20695e-032 1.98785e-016 -6.36111e-015 -148.968 -69.2756 -117.657 -88.4838 63.0673 -51.234 8.231 19.0219 -1.60077 19.3821 2.84836 -7.53904 81.2752 -8.0425 66.7236 75.217 63.5776 62.4177 -6.64432 22.8799 -1.44607 -11.2461 -6.46561 -26.2256 11.7929 -3.73492 -7.04967 10.7469 6.41899 1.06761 -1.00516e-008 1.56021e-007 -4.87131e-009 
113.038 102.658 -106.001 2.20172 -7.04811 -62.1194 1.51608 22.8287 -11.8027 -9.75123 -3.75242 12.2897 -4.45804 4.1857 -9.74163 0.0462048 0.000533403 0.662642 -12.6863 3.00796 12.9955 0.849487 -0.997955 -0.0599171 -9.54344 20.4651 14.6191 3.97252e-031 1.19271e-015 -1.90833e-014 -142.207 -67.6152 -112.036 -85.9216 62.3126 -49.7456 9.58751 20.3987 -3.36502 20.3623 2.51872 -8.7664 83.2838 -7.78232 66.4033 75.021 63.1875 59.9882 -4.50634 26.1814 -8.30514 -11.598 -6.94908 -31.1908 12.2672 -3.729 -5.76416 21.5622 6.09572 0.922923 -1.00516e-008 1.56021e-007 -4.87131e-009 
114.306 101.08 -106.036 2.00418 -7.20719 -64.5333 0.464787 22.2867 -10.6232 -9.88851 -3.75209 7.02214 -2.65852 -1.6662 -8.27219 0.0462048 0.000533403 0.662642 -14.3644 3.9174 13.414 0.746074 -0.875747 -0.0563247 -9.70402 20.8989 15.0166 -0 0 9.54166e-015 -138.106 -66.4477 -109.193 -83.7306 61.4689 -48.4081 11.0023 21.6972 -4.99653 21.1837 2.66836 -9.0341 85.4316 -7.84073 66.1724 72.1399 62.5114 59.2538 -0.409933 30.3488 -15.9035 -11.212 -6.81389 -35.7275 12.2937 -3.72227 -3.52627 32.5684 5.85141 0.663983 -1.00516e-008 1.56021e-007 -4.87132e-009 
115.51 99.4251 -106.062 1.54654 -7.36559 -66.5561 -0.532855 21.4512 -9.5095 -9.07278 -3.72315 -1.2431 -1.75468 -5.67364 -6.18209 0.0462048 0.000533403 0.662642 -16.1269 5.48678 12.1668 0.646622 -0.705545 -0.106398 -10.3457 21.4278 15.6097 -1.59028e-015 -7.95139e-016 -0 -140.858 -66.6579 -113.327 -82.7883 61.1318 -46.9163 12.371 22.8176 -6.41006 21.3979 3.71473 -5.99142 87.9401 -8.86331 66.4868 61.7698 60.2884 63.1183 2.95901 23.0324 -3.74035 -10.0046 -6.56306 -39.217 11.4716 -3.707 0.790095 43.8288 5.52637 0.483086 -1.00516e-008 1.56021e-007 -4.87132e-009 
116.665 97.7453 -106.068 0.840758 -7.50021 -68.2188 -1.96131 20.5578 -8.11116 -6.15575 -3.63903 -11.3556 -3.6761 -7.21055 -4.28662 0.0462048 0.000533403 0.662642 -17.8871 8.00369 9.9705 0.557895 -0.588305 -0.0957912 -11.1799 20.9752 16.933 4.41391e-032 -7.95139e-016 3.18055e-015 -148.728 -67.0175 -122.625 -82.9568 61.1687 -45.0887 13.07 22.9848 -7.38595 21.5186 4.21184 -2.24421 90.0201 -9.09348 66.5587 48.1112 56.8893 68.7758 8.22395 22.8763 -2.76042 -8.84267 -6.19893 -41.5363 10.7347 -3.66911 6.23147 54.8783 5.22297 0.396598 -1.00516e-008 1.56021e-007 -4.87132e-009 
117.797 96.2276 -106.035 -0.0890746 -7.5521 -69.5797 -5.08825 18.657 -5.84112 -0.223036 -0.367129 -20.3028 -5.49778 -8.3222 -2.51323 0.0462048 0.000533403 0.662642 -19.2698 10.4362 8.04617 0.478199 -0.559794 -0.0046059 -11.9191 20.8345 17.9421 1.59028e-015 -7.95139e-016 -6.36111e-015 -157.252 -67.057 -132.289 -83.9377 61.4445 -42.9123 13.8412 23.1369 -8.27827 21.5692 4.79299 0.666448 91.7718 -8.70523 66.4193 33.6404 52.4394 74.8009 14.3141 16.5323 8.24274 -7.09205 -6.8577 -42.599 7.67324 -3.61555 12.4764 66.6577 4.59656 0.440717 -1.00516e-008 1.56021e-007 -4.87131e-009 
118.946 94.9396 -105.923 -1.1877 -7.50438 -70.6895 -14.2025 18.6147 -1.67832 16.8785 -0.373286 -27.7189 -13.1422 -9.90695 -0.336756 0.0462048 0.000533403 0.662642 -20.3166 12.756 6.41205 0.390421 -0.458229 0.00437971 -12.5926 20.7788 18.7902 3.18055e-015 1.59028e-015 -0 -165.796 -66.5091 -141.819 -85.4193 61.8725 -40.4687 14.2281 22.8313 -8.84828 21.6126 5.34437 3.25316 93.2741 -8.0677 66.2743 25.3438 49.909 78.0151 17.0584 16.6649 9.14608 -5.15161 -8.17228 -42.4846 3.41722 -3.531 19.104 78.3633 3.98376 0.770321 -1.00516e-008 1.56021e-007 -4.87132e-009 
120.115 93.9018 -105.707 -2.38707 -7.3639 -71.586 -21.8091 18.8379 3.46225 30.7118 -3.01736 -32.1495 -19.9426 -9.75423 -0.247432 0.0462048 0.000533403 0.662642 -21.0748 14.9443 5.05835 0.309038 -0.3597 0.0074928 -13.1919 20.8463 19.4284 6.36111e-015 0 3.18055e-015 -173.272 -65.4549 -150.121 -87.1776 62.3989 -37.8609 14.6937 22.59 -9.35133 21.6852 5.88399 5.50654 94.5117 -7.45942 66.2564 20.3912 48.6138 80.0641 19.183 14.6179 13.4746 -2.99214 -9.90264 -41.204 -1.66715 -3.40822 25.9159 89.6709 3.51511 1.30575 -1.00516e-008 1.56021e-007 -4.87131e-009 
